<svg width="1920" height="1202" viewBox="0 0 1920 1202" fill="none" xmlns="http://www.w3.org/2000/svg">
<path d="M828.059 479.466C817.227 495.518 810.735 511.969 808.584 528.819C808.425 530.16 807.629 531.392 806.195 532.515C804.283 534.037 803.288 535.668 803.208 537.407C802.73 544.582 800.739 551.503 797.234 558.17C792.216 567.519 789.229 574.458 788.273 578.988C784.53 596.091 779.313 613.865 772.622 632.309C766.569 649.05 761.272 666.914 756.732 685.902C751.714 706.629 743.39 727.428 731.761 748.3C725.708 759.026 722.004 769.698 720.65 780.315C718.022 799.774 711.45 817.71 715.751 839.126L688.989 887.718C688.67 888.298 689.148 888.697 690.423 888.914L693.29 889.349C694.606 889.562 696.053 889.534 697.325 889.27C698.596 889.006 699.591 888.528 700.1 887.936C785.406 790.678 843.631 720.924 874.774 678.673C940.486 589.569 994.768 512.386 1037.62 447.125C1100.46 351.281 1148.73 281.454 1182.42 237.645C1225.99 181.008 1267.81 131.22 1307.87 88.2802C1324.04 71.0319 1352.4 60.6503 1392.94 57.1354C1429.82 55.5772 1452.64 62.4439 1461.4 77.7355C1467.69 88.86 1465.03 99.2416 1453.4 108.88C1432.93 125.911 1410.31 153.577 1385.53 191.879C1380.83 199.126 1374.98 206.428 1367.97 213.783C1361.92 220.052 1357.34 227.227 1354.23 235.308C1353.51 237.192 1351.88 238.895 1349.33 240.417C1346.31 242.192 1344.59 244.149 1344.19 246.287C1342.52 256.868 1337.34 268.065 1328.66 279.878C1315.04 298.467 1308.15 307.943 1307.99 308.305C1267.45 375.088 1234.44 430.239 1208.95 473.758C1207.04 476.983 1204.29 479.937 1200.7 482.618C1198.24 484.43 1196.92 486.405 1196.76 488.543C1195.65 506.625 1188.68 522.297 1175.85 535.559C1170.68 540.994 1167.53 546.72 1166.41 552.735C1164.9 561.323 1161 569.421 1154.71 577.031C1145.23 588.409 1138.42 601.418 1134.28 616.057C1132.52 622.145 1129.58 628.051 1125.43 633.777C1114.32 649.539 1110.02 664.921 1094.61 680.63C1088.95 686.391 1086.45 692.153 1087.08 697.914C1088.04 706.611 1085.53 715.09 1079.56 723.352C1070.87 735.455 1064.58 748.119 1060.68 761.345C1059.24 766.418 1056.74 771.582 1053.15 776.836C1050.05 781.474 1047.89 786.457 1046.7 791.784C1045.35 797.98 1042.24 804.774 1037.38 812.166C1032.6 819.341 1028.74 826.769 1025.79 834.451C1019.74 849.997 1007.91 870.47 990.307 895.871C989.909 896.415 990.307 896.777 991.502 896.958L994.489 897.448C996.321 897.738 997.595 897.466 998.312 896.632L1147.66 719.112C1210.18 646.822 1270.12 575.237 1327.47 504.36C1418.83 391.557 1496.93 281.49 1561.76 174.159C1572.67 156.078 1582.43 138.014 1591.03 119.969C1603.34 93.933 1664.51 72.5719 1720.31 90.6174C1732.09 94.4222 1742.25 101.071 1750.77 110.565C1738.9 130.278 1721.94 150.316 1699.88 170.681C1682.67 186.516 1670.09 199.18 1662.12 208.674C1651.21 221.647 1640.3 234.619 1629.38 247.592C1623.33 254.766 1618.67 262.14 1615.41 269.714C1612.14 277.287 1607.64 284.48 1601.9 291.292C1594.42 300.243 1588.28 309.591 1583.51 319.339C1579.44 327.637 1573.79 335.12 1566.54 341.787C1558.02 349.614 1552.36 357.568 1549.57 365.648C1547.34 371.917 1542.41 377.697 1534.76 382.987C1526.79 388.531 1521.74 394.547 1519.59 401.033C1513.37 420.129 1500.03 439.769 1479.56 459.953C1478.32 461.224 1477.98 462.632 1478.61 463.975C1479.16 465.243 1479 466.493 1478.13 467.725C1463.39 488.923 1453.36 502.041 1448.02 507.077C1441.97 512.875 1439.14 518.782 1439.54 524.797C1439.62 526.726 1438.67 528.645 1436.79 530.395C1418.39 547.571 1408.03 566.287 1405.72 586.543C1405.57 587.956 1404.45 589.243 1402.38 590.402C1401.11 591.127 1399.67 591.761 1398.08 592.304C1396.48 592.846 1395.16 593.543 1394.23 594.342C1393.3 595.141 1392.78 596.024 1392.7 596.925C1391.51 611.854 1383.26 625.678 1367.97 638.397C1357.93 646.767 1355.9 656.279 1350.29 665.356C1345.91 672.313 1342.84 679.253 1341.09 686.174C1338.58 696.501 1326.51 704.056 1321.26 714.003C1312.73 730.128 1304.37 746.054 1296.17 761.78C1287.88 777.724 1278.16 793.269 1267.01 808.416C1252.52 828.056 1242.96 848.837 1238.34 870.76C1235.71 883.696 1219.82 893.697 1216.36 906.797C1214.52 913.899 1211.9 920.983 1208.47 928.049C1194.37 957.545 1184.18 987.204 1177.88 1017.03C1177.73 1017.97 1178.68 1018.49 1180.75 1018.6L1183.98 1018.77C1188.04 1018.95 1190.47 1018.11 1191.27 1016.27C1195.01 1007.5 1204.57 996.807 1219.94 984.197C1238.18 969.231 1260.2 943.123 1286.01 905.872C1303.45 882.609 1320.9 859.201 1338.34 835.647C1368.21 795.28 1398.28 754.95 1428.54 714.655C1437.51 702.752 1446.23 687.587 1455.55 673.835C1535.52 555.271 1600.59 465.008 1650.77 403.044C1718.79 319.049 1783.51 233.333 1844.92 145.895C1857.7 127.524 1908.96 95.781 1960.21 108.174C1995.02 116.58 2010.23 127.741 2005.85 141.656C2003.86 148.07 1993.15 158.451 1973.71 172.801C1956.27 185.701 1941.06 198.709 1928.07 211.827C1907.68 228.821 1889.2 249.349 1872.64 273.41C1860.93 290.368 1843.05 309.138 1818.99 329.72C1806.09 340.863 1802.5 352.821 1796.41 364.67C1792.43 372.57 1786.61 381.339 1778.97 390.977C1771.32 400.797 1764.23 410.472 1757.7 420.002C1756.59 421.561 1752.52 429.007 1745.51 442.342C1741.61 449.879 1736.24 457.217 1729.39 464.355C1719.83 474.356 1711.62 485.445 1704.77 497.62C1703.75 499.335 1701.83 500.936 1699.16 502.294C1695.81 503.925 1694.06 505.809 1693.9 507.947C1693.5 512.839 1693.34 517.984 1693.42 523.384C1693.5 527.66 1692.47 531.79 1690.32 535.776C1675.98 561.903 1664.43 586.434 1655.67 609.372C1650.49 622.96 1642.96 636.222 1633.09 649.159C1631.81 650.862 1631.53 652.601 1632.25 654.377C1634.08 658.544 1633.33 662.82 1629.98 667.204C1624.33 674.669 1617.83 681.825 1610.51 688.674C1596.53 701.665 1627.35 711.068 1609.79 724.33C1596.29 734.44 1572.27 757.051 1580.04 767.977C1585.78 775.967 1577.05 791.512 1573.11 800.208C1572.63 801.332 1571.64 802.346 1570.12 803.252C1568.37 804.303 1566.54 805.336 1564.63 806.35C1561.53 808.004 1559.76 810.073 1559.61 812.221C1557.7 832.694 1547.74 851.917 1529.74 869.89C1527.99 871.63 1526.91 873.459 1526.52 875.38L1517.08 920.82C1504.89 940.351 1490.55 957.835 1474.07 973.271C1472.15 975.011 1471.52 976.895 1472.15 978.924C1473.03 981.497 1475.22 981.769 1478.72 979.74C1485.81 975.609 1491.15 971.17 1494.73 966.423C1503.97 954.284 1514.89 941.927 1527.47 929.353C1577.97 878.732 1629.66 818.127 1682.55 747.539C1772 628.142 1868.02 494.848 1970.61 347.657C1988.77 321.567 2014.34 288.901 2058.3 268.735C2067.06 264.677 2074.71 265.076 2081.24 269.931L2083.99 272.051C2091.08 277.378 2088.77 281.653 2077.06 284.878C2072.92 286.002 2070.45 287.596 2069.65 289.662C2069.46 290.104 2069.48 290.56 2069.72 290.997C2069.96 291.435 2070.41 291.842 2071.04 292.191C2071.67 292.539 2072.46 292.82 2073.36 293.012C2074.25 293.205 2075.23 293.304 2076.22 293.303C2079.25 293.303 2081.44 293.919 2082.8 295.151C2083.33 295.65 2083.63 296.191 2083.69 296.743C2083.75 297.294 2083.57 297.843 2083.15 298.358C2064.63 320.915 2058.06 344.45 2040.86 367.823C2005.85 415.165 1965.95 463.866 1934.05 512.241C1894.62 571.976 1847.07 631.222 1806.45 691.229C1768.93 746.561 1727.39 802.02 1681.83 857.606C1679.05 861.049 1676.42 864.618 1673.95 868.314C1644.16 913.138 1612.22 955.081 1578.13 994.143C1565.23 1008.96 1554.03 1023.69 1544.56 1038.33C1534.92 1053.3 1523.49 1068.1 1510.27 1082.74C1486.37 1109.21 1477.53 1137.96 1464.63 1165.9C1445.87 1206.5 1353.04 1213.03 1298.91 1184.6C1289.12 1179.45 1286.49 1173 1291.03 1165.25C1327.43 1103.25 1362.91 1041.2 1397.48 979.087C1418.11 942.743 1439.06 906.489 1460.33 870.325C1476.1 843.438 1497.84 793.94 1525.56 721.83C1529.7 710.995 1537.71 697.878 1549.57 682.478C1559.21 669.831 1566.5 656.569 1571.44 642.691C1578.77 622.362 1574.78 621.909 1559.49 641.332C1544.56 660.356 1521.98 677.858 1515.76 697.751C1511.38 711.883 1503.42 724.838 1491.87 736.614C1473.95 755.04 1470.36 774.825 1453.64 793.523C1442.4 805.97 1442.4 818.308 1430.7 830.755C1422.65 839.271 1415.88 848.294 1410.38 857.824C1390.31 892.574 1365.46 925.965 1335.83 957.998C1328.74 965.644 1323.76 973.253 1320.9 980.827C1317.79 988.98 1313.37 996.734 1307.64 1004.09C1300.15 1013.58 1293.34 1023.04 1287.2 1032.46C1275.66 1050.18 1263.23 1067.27 1249.93 1083.72C1235.83 1101.28 1238.7 1121.39 1200.47 1133.13C1176.17 1140.63 1147.94 1144.56 1115.76 1144.92C1073.94 1138.65 1048.49 1127.89 1039.41 1112.64C1042.44 1089.26 1045.27 1074.48 1047.89 1068.28C1064.62 1028.97 1088.84 981.461 1120.54 925.766C1129.22 910.366 1137.34 894.929 1144.91 879.456C1159.72 848.692 1182.78 817.928 1199.75 787.218C1221.97 747.05 1251.6 707.263 1279.92 668.128C1281.83 665.483 1280.2 664.885 1275.02 666.335C1252.08 672.911 1259.73 682.912 1250.29 692.424C1225.83 717.174 1207.16 742.448 1194.25 768.248C1187.32 782.326 1171.55 793.849 1166.41 808.09C1162.11 819.83 1153.99 830.248 1142.04 839.343C1128.3 849.779 1123.04 860.704 1118.27 872.445C1117.39 874.474 1114.92 875.96 1110.86 876.902C1104.57 878.315 1099.55 880.652 1095.8 883.914C1090.87 888.117 1088.8 892.501 1089.59 897.067C1092.14 912.54 1081.35 925.277 1057.21 935.278C1053.87 936.619 1052.12 938.304 1051.96 940.333C1050.44 957.11 1046.94 973.09 1041.44 988.273C1041.12 989.179 1039.97 989.741 1037.98 989.958C1035.67 990.212 1034.23 990.846 1033.68 991.86C1030.17 998.166 1027.34 1004.47 1025.19 1010.78C1023.04 1017.08 1020.3 1023.35 1016.95 1029.58C1004.05 1053.06 998.75 1077.69 1001.06 1103.45C1001.86 1112.33 997.755 1120.08 988.754 1126.71C979.355 1133.63 966.531 1139.94 950.283 1145.63C928.06 1151.21 901.497 1152.24 870.592 1148.73C807.39 1141.61 803.447 1121.33 816.35 1095.79C835.944 1057.14 849.565 1016.37 867.964 977.728C887.717 936.275 908.785 892.429 931.167 846.192C951.557 804.267 977.961 755.439 1010.38 699.708C1029.18 667.53 1048.17 632.327 1067.37 594.098C1102.26 524.742 1140.09 455.423 1180.87 386.14C1200.7 352.386 1214.21 318.415 1240.49 285.585C1240.52 285.578 1240.55 285.565 1240.56 285.55C1240.57 285.535 1240.57 285.518 1240.55 285.504C1240.53 285.489 1240.51 285.478 1240.47 285.473C1240.44 285.468 1240.4 285.469 1240.37 285.476L1237.5 284.987C1235.75 284.733 1234.56 284.987 1233.92 285.748C1221.09 301.148 1210.06 315.661 1200.82 329.286C1180.35 359.506 1158.97 391.756 1136.67 426.036C1130.29 435.747 1124.12 445.965 1118.15 456.691C1110.5 470.443 1094.73 483.107 1088.99 497.239C1083.74 510.465 1075.37 521.952 1063.9 531.7C1056.82 537.715 1051.84 543.875 1048.97 550.18C1046.58 555.326 1044.23 560.381 1041.92 565.345C1039.69 569.874 1036.54 574.458 1032.48 579.096C1024.76 587.793 1019.42 597.305 1016.47 607.632C1015.84 609.915 1012.05 612.307 1005.12 614.807C1002.1 615.93 1000.06 617.362 999.029 619.101L970.474 669.976C959.801 677.984 951.04 686.228 944.19 694.707C936.782 703.947 928.976 712.354 920.772 719.928C907.988 731.668 905.121 744.169 894.488 756.834C874.893 780.242 858.804 804.792 846.219 830.484C840.007 838.492 833.037 846.699 825.311 855.106C817.665 863.404 811.85 871.702 807.867 880C802.849 890.291 795.84 900.854 786.84 911.688C778.556 921.689 771.308 932.125 765.095 942.996C754.74 961.187 742.673 978.254 728.894 994.198C721.646 1002.71 718.579 1011.32 719.694 1020.02C720.969 1029.65 720.371 1038.82 717.902 1047.52C703.207 1098.88 532.475 1092.42 549.441 1045.94C580.664 960.571 608.821 873.749 633.911 785.479C634.07 785.044 633.712 784.718 632.835 784.5L629.848 783.793C629.307 783.67 628.71 783.607 628.104 783.609C627.499 783.612 626.904 783.679 626.367 783.807C625.831 783.934 625.368 784.117 625.018 784.342C624.668 784.566 624.44 784.826 624.352 785.098C618.14 806.151 611.808 828.038 605.356 850.758C598.984 873.151 591.297 894.984 582.297 916.254C567.88 950.352 555.734 986.824 545.857 1025.67C541.635 1042.34 525.227 1052.99 496.633 1057.63C411.566 1071.43 355.412 1052.25 343.106 1013.49C333.07 981.751 328.331 955.008 328.889 933.267C330.083 890.762 331.756 847.062 341.911 803.959C352.346 759.389 362.302 714.347 371.78 668.835C383.489 612.126 411.406 518.039 455.533 386.575C461.268 376.32 465.529 365.956 468.317 355.484C468.476 354.868 467.879 354.506 466.525 354.397H466.405C465.051 354.288 464.215 354.542 463.896 355.158C459.356 363.746 454.498 372.316 449.32 380.868L367.24 572.357C357.841 582.974 355.771 594.732 361.028 607.632L325.663 712.209C325.264 713.296 324.747 713.296 324.109 712.209C323.711 711.521 323.711 710.832 324.109 710.144C324.428 709.492 324.388 708.803 323.99 708.078C323.592 707.354 323.273 707.372 323.034 708.133C320.326 716.684 321.043 724.53 325.185 731.668C326.22 733.407 325.742 735.056 323.751 736.614C322.317 737.81 320.406 738.825 318.016 739.658C314.352 740.999 312.879 742.72 313.596 744.822C318.853 760.041 318.255 773.666 311.803 785.696C299.219 809.213 291.97 831.19 290.059 851.627C272.376 877.79 268.314 907.213 277.872 939.898C275.164 949.138 274.208 958.705 275.005 968.597C275.881 979.395 275.045 988.889 272.496 997.078C268.792 1008.93 264.61 1021.27 266.642 1033.33C268.951 1047.07 257.083 1058.88 231.038 1068.77C163.175 1094.59 72.7322 1079.97 72.6127 1038.22C72.4932 988.491 63.5325 938.974 67.3557 889.023C71.179 839.615 69.8647 788.087 79.6617 737.701C84.5602 712.046 81.6928 686.337 85.2771 660.356C93.959 596.363 100.809 532.424 105.827 468.54C108.097 439.57 105.23 410.98 113.593 382.118C115.186 376.827 115.345 371.519 114.071 366.192C112.637 359.996 110.367 359.923 107.261 365.975C95.4724 388.839 86.432 411.197 80.1396 433.047C79.0244 436.961 76.9137 440.766 73.8073 444.462C70.2231 448.665 70.5815 453.267 74.8826 458.268C76.2366 459.789 75.7588 461.076 73.4489 462.127C72.5728 462.525 71.6169 462.562 70.5815 462.235C70.4441 462.199 70.2889 462.178 70.1297 462.176C69.9705 462.173 69.8125 462.189 69.6701 462.221C69.5276 462.254 69.4053 462.302 69.3141 462.361C69.2228 462.421 69.1657 462.49 69.1478 462.562L64.1298 478.65C63.971 479.258 63.4798 479.854 62.6962 480.39C58.395 483.434 53.2177 484.865 47.1643 484.684C40.155 484.466 36.4512 485.952 36.053 489.141C34.3803 503.128 33.2254 516.789 32.5882 530.124C32.2696 536.574 29.8801 542.498 25.4196 547.897C17.6935 557.21 13.3525 562.881 12.3967 564.91C1.64389 587.703 -8.4319 611.038 -17.8307 634.918C-18.5475 636.73 -20.1803 638.36 -22.7291 639.81C-32.1279 645.245 -37.4646 651.496 -38.739 658.562C-39.2169 660.881 -36.9468 661.805 -31.9288 661.334C-22.5301 660.501 -16.3969 657.638 -13.5295 652.746C-13.1075 651.985 -12.0654 651.323 -10.607 650.891C-9.14859 650.459 -7.37882 650.287 -5.64407 650.409L-1.46243 650.735C-0.68959 650.795 0.0494995 650.923 0.711105 651.113C1.37272 651.302 1.94333 651.549 2.38905 651.837C2.83477 652.126 3.14654 652.452 3.30586 652.795C3.46519 653.138 3.46889 653.491 3.31662 653.833C0.84745 659.486 -6.20168 664.305 -17.8307 668.291C-21.3353 669.487 -24.7603 669.451 -28.1056 668.183C-30.0969 667.422 -32.3271 666.932 -34.7962 666.715C-36.9468 666.534 -38.9779 666.715 -40.8895 667.259C-44.3942 668.273 -46.1465 669.759 -46.1465 671.716C-46.1465 673.817 -44.3543 675.502 -40.77 676.771C-37.5044 677.93 -35.1945 679.325 -33.8404 680.956C-33.3574 681.544 -33.2387 682.18 -33.4971 682.797C-33.7556 683.413 -34.3813 683.985 -35.306 684.451C-36.2308 684.916 -37.4189 685.257 -38.7407 685.437C-40.0625 685.616 -41.467 685.626 -42.8011 685.467L-74.8207 681.771C-78.8828 681.264 -80.5556 680.068 -79.8387 678.184C-60.9615 631.657 -42.363 583.716 -24.0434 534.363C-15.1225 510.339 -4.68833 485.046 7.25926 458.485C14.8261 441.672 22.0345 424.822 28.8845 407.936C35.7344 391.159 43.6995 374.345 52.7796 357.495C76.4359 313.541 97.4636 269.333 115.863 224.872C125.899 200.793 112.757 163.071 175.003 151.657C222.316 143.015 261.026 156.929 267.12 178.182C268.792 184.052 266.721 191.027 260.907 199.108C256.128 205.775 251.906 212.497 248.242 219.273C239.64 233.659 237.211 248.226 240.954 262.974L233.188 294.173C218.214 335.808 210.289 377.679 209.413 419.785C209.253 427.177 207.342 434.823 203.678 442.722C199.775 451.165 198.341 459.427 199.377 467.508C200.452 475.933 193.403 483.162 194.12 491.315C195.912 512.513 185.159 531.319 183.725 551.702C182.69 567.066 180.221 583.101 176.318 599.805C173.092 613.992 178.349 627.635 174.048 641.604C171.101 651.46 170.463 661.497 172.136 671.716C174.685 686.717 173.411 706.14 168.313 729.983C164.49 747.775 165.804 768.756 172.256 792.925L167.715 855.378C167.715 856.32 168.751 856.773 170.822 856.737L176.198 856.628C177.154 856.628 177.632 856.429 177.632 856.03C178.349 826.135 191.372 802.763 198.182 776.238C202.005 761.49 207.66 747.34 215.147 733.788C235.817 696.284 246.211 657.203 261.982 618.503C278.231 578.535 294.918 538.711 312.042 499.033C371.86 360.72 445.577 228.314 533.192 101.814C543.467 87.0663 559.636 76.884 581.7 71.2674C620.012 61.5561 651.593 65.6146 676.444 83.4427C687.914 91.6502 687.675 99.3684 679.909 108.228C654.58 137.036 638.49 161.749 631.641 182.367C622.481 210.051 615.87 227.771 611.807 235.525L591.138 295.423L580.027 312.762C574.212 318.777 571.225 325.137 571.066 331.84C571.066 333.616 570.23 335.301 568.557 336.895C561.07 344.07 558.601 351.897 561.15 360.376C557.486 363.927 555.893 368.602 556.371 374.399C543.547 393.822 537.135 413.534 537.135 433.537C527.258 460.098 518.696 486.713 511.448 513.383C507.266 528.275 497.469 542.897 493.646 557.79C482.415 602.36 471.622 646.061 461.268 688.891C454.099 718.351 449.559 747.34 447.648 775.858C445.656 805.173 443.466 833.962 441.076 862.226C439.882 876.576 440.479 891.342 442.869 906.525C445.178 920.91 445.816 935.767 444.78 951.095C444.78 951.312 445.019 951.439 445.497 951.475L448.962 951.693C452.626 951.91 454.856 951.204 455.653 949.573C467.361 925.44 484.924 899.404 495.916 878.206C564.017 747.757 623.875 606.708 698.189 470.66C755.776 365.105 836.661 260.419 913.126 158.125C942.119 119.353 968.961 78.5689 993.653 35.7743C1005.24 15.7176 1053.27 -7.98067 1103.45 2.61835C1149.33 12.2934 1156.14 34.198 1130.45 53.0045C1114.44 64.6906 1098.79 77.1376 1087.44 89.7477C1059.56 120.802 1033.4 151.766 1008.95 182.639C1004.72 188.038 1000.42 193.473 996.042 198.945C973.103 227.789 952.314 257.665 933.676 288.575C932.401 290.712 931.007 292.85 929.494 294.988C895.802 343.4 867.287 392.427 843.949 442.07C838.214 454.245 832.918 466.711 828.059 479.466Z" fill="black" fill-opacity="0.02"/>
</svg>
