<svg width="375" height="2168" viewBox="0 0 375 2168" fill="none" xmlns="http://www.w3.org/2000/svg">
<path d="M496.534 908.059C480.482 897.226 464.031 890.735 447.181 888.584C445.84 888.425 444.608 887.629 443.485 886.195C441.963 884.283 440.332 883.288 438.593 883.208C431.418 882.73 424.497 880.739 417.83 877.234C408.481 872.216 401.542 869.229 397.012 868.273C379.909 864.53 362.135 859.313 343.691 852.622C326.95 846.569 309.086 841.272 290.098 836.732C269.371 831.714 248.572 823.39 227.7 811.761C216.974 805.708 206.302 802.004 195.685 800.65C176.226 798.022 158.29 791.45 136.874 795.751L88.2816 768.989C87.7019 768.67 87.3033 769.148 87.0858 770.423L86.651 773.29C86.4378 774.606 86.4662 776.053 86.7299 777.324C86.9937 778.596 87.4723 779.591 88.0643 780.1C185.322 865.406 255.076 923.631 297.327 954.774C386.431 1020.49 463.614 1074.77 528.875 1117.62C624.719 1180.46 694.546 1228.73 738.355 1262.42C794.992 1305.99 844.78 1347.81 887.72 1387.87C904.968 1404.04 915.35 1432.4 918.865 1472.94C920.423 1509.82 913.556 1532.64 898.264 1541.4C887.14 1547.69 876.758 1545.03 867.12 1533.4C850.089 1512.93 822.423 1490.31 784.121 1465.53C776.874 1460.83 769.572 1454.98 762.216 1447.97C755.948 1441.92 748.773 1437.34 740.692 1434.23C738.808 1433.51 737.105 1431.88 735.583 1429.33C733.807 1426.31 731.851 1424.59 729.713 1424.19C719.132 1422.52 707.935 1417.34 696.122 1408.66C677.533 1395.04 668.057 1388.15 667.695 1387.99C600.912 1347.45 545.761 1314.44 502.241 1288.95C499.016 1287.04 496.063 1284.29 493.382 1280.7C491.57 1278.24 489.595 1276.92 487.457 1276.76C469.375 1275.65 453.703 1268.68 440.441 1255.85C435.006 1250.68 429.28 1247.53 423.265 1246.41C414.677 1244.9 406.578 1241 398.969 1234.71C387.591 1225.23 374.582 1218.42 359.943 1214.28C353.855 1212.52 347.949 1209.58 342.223 1205.43C326.461 1194.32 311.079 1190.02 295.37 1174.61C289.609 1168.95 283.847 1166.45 278.086 1167.08C269.389 1168.04 260.91 1165.53 252.648 1159.56C240.545 1150.87 227.881 1144.58 214.655 1140.68C209.582 1139.24 204.418 1136.74 199.164 1133.15C194.526 1130.05 189.543 1127.89 184.216 1126.7C178.02 1125.35 171.226 1122.24 163.834 1117.38C156.659 1112.6 149.231 1108.74 141.549 1105.79C126.003 1099.74 105.53 1087.91 80.1286 1070.31C79.585 1069.91 79.2227 1070.31 79.0415 1071.5L78.5523 1074.49C78.2624 1076.32 78.5341 1077.6 79.3676 1078.31L256.888 1227.66C329.178 1290.18 400.763 1350.12 471.64 1407.47C584.443 1498.83 694.51 1576.93 801.841 1641.76C819.922 1652.67 837.986 1662.43 856.031 1671.03C882.067 1683.34 903.428 1744.51 885.382 1800.31C881.578 1812.09 874.928 1822.25 865.435 1830.77C845.722 1818.9 825.684 1801.94 805.319 1779.87C789.484 1762.67 776.82 1750.09 767.326 1742.12C754.353 1731.21 741.381 1720.3 728.408 1709.38C721.234 1703.33 713.86 1698.67 706.286 1695.41C698.713 1692.14 691.52 1687.64 684.708 1681.9C675.757 1674.42 666.409 1668.28 656.661 1663.51C648.363 1659.44 640.88 1653.79 634.213 1646.54C626.386 1638.02 618.432 1632.36 610.351 1629.57C604.083 1627.34 598.303 1622.41 593.013 1614.76C587.468 1606.79 581.453 1601.74 574.967 1599.59C555.871 1593.37 536.231 1580.03 516.047 1559.56C514.775 1558.32 513.368 1557.98 512.025 1558.61C510.757 1559.16 509.507 1559 508.275 1558.13C487.077 1543.39 473.959 1533.36 468.922 1528.02C463.125 1521.97 457.218 1519.14 451.203 1519.54C449.274 1519.62 447.355 1518.67 445.605 1516.79C428.429 1498.39 409.713 1488.03 389.457 1485.72C388.044 1485.57 386.757 1484.45 385.598 1482.38C384.873 1481.11 384.239 1479.67 383.695 1478.08C383.154 1476.48 382.457 1475.16 381.658 1474.23C380.859 1473.3 379.976 1472.78 379.075 1472.7C364.146 1471.51 350.322 1463.26 337.603 1447.97C329.233 1437.93 319.721 1435.9 310.644 1430.29C303.686 1425.91 296.747 1422.84 289.826 1421.09C279.499 1418.58 271.944 1406.51 261.997 1401.26C245.872 1392.73 229.946 1384.37 214.22 1376.17C198.276 1367.88 182.731 1358.16 167.584 1347.01C147.944 1332.52 127.163 1322.96 105.24 1318.34C92.3039 1315.71 82.3027 1299.82 69.2034 1296.36C62.1011 1294.52 55.017 1291.9 47.951 1288.47C18.4549 1274.37 -11.2042 1264.18 -41.0264 1257.88C-41.9686 1257.73 -42.494 1258.68 -42.6027 1260.75L-42.7658 1263.98C-42.947 1268.04 -42.1135 1270.47 -40.2654 1271.27C-31.4963 1275.01 -20.8068 1284.57 -8.19665 1299.94C6.7688 1318.18 32.8768 1340.2 70.1274 1366.01C93.3909 1383.45 116.799 1400.9 140.353 1418.34C180.72 1448.21 221.05 1478.28 261.345 1508.54C273.248 1517.51 288.413 1526.23 302.165 1535.55C420.729 1615.52 510.992 1680.59 572.956 1730.77C656.951 1798.79 742.667 1863.51 830.105 1924.92C848.476 1937.7 880.219 1988.96 867.826 2040.21C859.419 2075.02 848.259 2090.23 834.344 2085.85C827.93 2083.86 817.549 2073.15 803.199 2053.71C790.299 2036.27 777.291 2021.06 764.173 2008.07C747.179 1987.68 726.651 1969.2 702.59 1952.64C685.632 1940.93 666.861 1923.05 646.279 1898.99C635.137 1886.09 623.179 1882.5 611.33 1876.41C603.43 1872.43 594.661 1866.61 585.023 1858.97C575.203 1851.32 565.528 1844.23 555.998 1837.7C554.439 1836.59 546.993 1832.52 533.658 1825.51C526.121 1821.61 518.783 1816.24 511.645 1809.39C501.644 1799.83 490.555 1791.62 478.38 1784.77C476.665 1783.75 475.064 1781.83 473.706 1779.16C472.075 1775.81 470.191 1774.06 468.053 1773.9C463.161 1773.5 458.015 1773.34 452.616 1773.42C448.34 1773.5 444.21 1772.47 440.224 1770.32C414.097 1755.98 389.566 1744.43 366.628 1735.67C353.04 1730.49 339.777 1722.96 326.841 1713.09C325.138 1711.81 323.399 1711.53 321.623 1712.25C317.456 1714.08 313.18 1713.33 308.796 1709.98C301.331 1704.33 294.174 1697.83 287.326 1690.51C274.335 1676.53 264.932 1707.35 251.67 1689.79C241.56 1676.29 218.949 1652.27 208.023 1660.04C200.033 1665.78 184.488 1657.05 175.791 1653.11C174.668 1652.63 173.654 1651.64 172.748 1650.12C171.697 1648.37 170.664 1646.54 169.65 1644.63C167.996 1641.53 165.927 1639.76 163.779 1639.61C143.306 1637.7 124.083 1627.74 106.11 1609.74C104.37 1607.99 102.541 1606.91 100.62 1606.52L55.18 1597.08C35.6489 1584.89 18.165 1570.55 2.72851 1554.07C0.98919 1552.15 -0.895087 1551.52 -2.92432 1552.15C-5.49708 1553.03 -5.76881 1555.22 -3.73963 1558.72C0.391289 1565.81 4.83019 1571.15 9.57708 1574.73C21.7162 1583.97 34.0727 1594.89 46.6465 1607.47C97.2682 1657.97 157.873 1709.66 228.46 1762.55C347.858 1852 481.152 1948.02 628.343 2050.61C654.432 2068.77 687.099 2094.34 707.265 2138.3C711.323 2147.06 710.924 2154.71 706.069 2161.24L703.949 2163.99C698.622 2171.08 694.346 2168.77 691.121 2157.06C689.998 2152.92 688.404 2150.45 686.338 2149.65C685.896 2149.46 685.44 2149.48 685.003 2149.72C684.565 2149.96 684.158 2150.41 683.809 2151.04C683.461 2151.67 683.18 2152.46 682.988 2153.36C682.795 2154.25 682.696 2155.23 682.697 2156.22C682.697 2159.25 682.081 2161.44 680.849 2162.8C680.35 2163.33 679.808 2163.63 679.257 2163.69C678.706 2163.75 678.157 2163.57 677.642 2163.15C655.085 2144.63 631.549 2138.06 608.177 2120.86C560.835 2085.85 512.134 2045.95 463.759 2014.05C404.024 1974.62 344.778 1927.07 284.771 1886.45C229.439 1848.93 173.98 1807.39 118.394 1761.83C114.951 1759.05 111.382 1756.42 107.686 1753.95C62.8621 1724.16 20.9189 1692.22 -18.1434 1658.13C-32.964 1645.23 -47.6939 1634.03 -62.3332 1624.56C-77.2987 1614.92 -92.101 1603.49 -106.74 1590.27C-133.211 1566.37 -161.964 1557.53 -189.902 1544.63C-230.504 1525.87 -237.027 1433.04 -208.6 1378.91C-203.454 1369.12 -197.004 1366.49 -189.25 1371.03C-127.25 1407.43 -65.1959 1442.91 -3.08741 1477.48C33.2573 1498.11 69.5113 1519.06 105.675 1540.33C132.562 1556.1 182.06 1577.84 254.17 1605.56C265.005 1609.7 278.122 1617.71 293.522 1629.57C306.169 1639.21 319.431 1646.5 333.309 1651.44C353.638 1658.77 354.091 1654.78 334.668 1639.49C315.644 1624.56 298.142 1601.98 278.249 1595.76C264.117 1591.38 251.162 1583.42 239.386 1571.87C220.96 1553.95 201.175 1550.36 182.477 1533.63C170.03 1522.4 157.692 1522.4 145.245 1510.7C136.729 1502.65 127.706 1495.88 118.176 1490.38C83.426 1470.31 50.0346 1445.46 18.002 1415.83C10.3562 1408.74 2.74664 1403.76 -4.82666 1400.9C-12.9797 1397.79 -20.7343 1393.37 -28.0901 1387.64C-37.584 1380.15 -47.0416 1373.34 -56.463 1367.2C-74.1823 1355.66 -91.2676 1343.23 -107.719 1329.93C-125.275 1315.83 -145.386 1318.7 -157.127 1280.47C-164.627 1256.17 -168.559 1227.94 -168.921 1195.76C-162.652 1153.94 -151.89 1128.49 -136.635 1119.41C-113.263 1122.44 -98.4786 1125.27 -92.2823 1127.89C-52.9662 1144.62 -5.46087 1168.84 50.2338 1200.54C65.6342 1209.22 81.0707 1217.34 96.5435 1224.91C127.308 1239.72 158.072 1262.78 188.782 1279.75C228.95 1301.97 268.737 1331.6 307.872 1359.92C310.517 1361.83 311.115 1360.2 309.665 1355.02C303.089 1332.08 293.087 1339.73 283.576 1330.29C258.826 1305.83 233.552 1287.16 207.752 1274.25C193.674 1267.32 182.151 1251.55 167.91 1246.41C156.17 1242.11 145.752 1233.99 136.657 1222.04C126.221 1208.3 115.296 1203.04 103.555 1198.27C101.526 1197.39 100.04 1194.92 99.0981 1190.86C97.6849 1184.57 95.3476 1179.55 92.0864 1175.8C87.883 1170.87 83.4985 1168.8 78.9327 1169.59C63.46 1172.14 50.723 1161.35 40.7219 1137.21C39.3812 1133.87 37.6962 1132.12 35.6671 1131.96C18.8898 1130.44 2.90968 1126.94 -12.2732 1121.44C-13.1791 1121.12 -13.7407 1119.97 -13.9582 1117.98C-14.2118 1115.67 -14.8459 1114.23 -15.8605 1113.68C-22.1656 1110.17 -28.4707 1107.34 -34.7757 1105.19C-41.0808 1103.04 -47.3496 1100.3 -53.5822 1096.95C-77.063 1084.05 -101.685 1078.75 -127.449 1081.06C-136.327 1081.86 -144.081 1077.75 -150.713 1068.75C-157.634 1059.36 -163.939 1046.53 -169.628 1030.28C-175.208 1008.06 -176.241 981.497 -172.726 950.592C-165.606 887.39 -145.332 883.447 -119.785 896.35C-81.1396 915.944 -40.3742 929.565 -1.7285 947.964C39.7254 967.717 83.5709 988.785 129.808 1011.17C171.733 1031.56 220.561 1057.96 276.292 1090.38C308.47 1109.18 343.673 1128.17 381.902 1147.37C451.257 1182.26 520.577 1220.09 589.86 1260.87C623.614 1280.7 657.585 1294.21 690.415 1320.49C690.422 1320.52 690.435 1320.55 690.45 1320.56C690.465 1320.57 690.482 1320.57 690.496 1320.55C690.511 1320.53 690.522 1320.51 690.527 1320.47C690.532 1320.44 690.531 1320.4 690.524 1320.37L691.013 1317.5C691.266 1315.75 691.013 1314.56 690.252 1313.92C674.852 1301.09 660.339 1290.06 646.714 1280.82C616.494 1260.35 584.243 1238.97 549.964 1216.67C540.253 1210.29 530.034 1204.12 519.309 1198.15C505.557 1190.5 492.893 1174.73 478.761 1168.99C465.534 1163.74 454.048 1155.37 444.3 1143.9C438.285 1136.82 432.125 1131.84 425.82 1128.97C420.674 1126.58 415.619 1124.23 410.655 1121.92C406.126 1119.69 401.542 1116.54 396.903 1112.48C388.207 1104.76 378.695 1099.42 368.368 1096.47C366.085 1095.84 363.693 1092.05 361.193 1085.12C360.07 1082.1 358.638 1080.06 356.899 1079.03L306.024 1050.47C298.015 1039.8 289.772 1031.04 281.293 1024.19C272.053 1016.78 263.646 1008.98 256.072 1000.77C244.332 987.988 231.83 985.121 219.166 974.488C195.758 954.893 171.208 938.804 145.516 926.219C137.508 920.007 129.301 913.037 120.894 905.311C112.596 897.665 104.298 891.85 95.9999 887.867C85.7089 882.849 75.1461 875.84 64.3116 866.84C54.3105 858.556 43.8745 851.308 33.0037 845.095C14.8132 834.74 -2.25394 822.673 -18.1977 808.894C-26.7132 801.646 -35.3192 798.579 -44.0159 799.694C-53.6547 800.969 -62.8223 800.371 -71.519 797.902C-122.883 783.207 -116.415 612.475 -69.9428 629.441C15.4292 660.664 102.251 688.821 190.521 713.911C190.956 714.07 191.282 713.712 191.5 712.835L192.207 709.848C192.33 709.307 192.393 708.709 192.391 708.104C192.388 707.499 192.321 706.904 192.193 706.367C192.066 705.831 191.883 705.368 191.658 705.018C191.434 704.668 191.174 704.44 190.902 704.352C169.849 698.14 147.962 691.808 125.242 685.356C102.849 678.984 81.0163 671.297 59.7458 662.297C25.6478 647.88 -10.8237 635.734 -49.6686 625.857C-66.3372 621.635 -76.9906 605.227 -81.6288 576.633C-95.4347 491.566 -76.2478 435.412 -37.4934 423.106C-5.75069 413.07 20.9915 408.331 42.7331 408.889C85.2379 410.083 128.938 411.756 172.041 421.911C216.611 432.346 261.653 442.302 307.165 451.78C363.874 463.489 457.961 491.406 589.425 535.533C599.68 541.268 610.044 545.529 620.516 548.317C621.132 548.476 621.494 547.879 621.603 546.525L621.603 546.405C621.711 545.051 621.458 544.215 620.842 543.896C612.254 539.356 603.684 534.498 595.132 529.32L403.643 447.24C393.026 437.841 381.268 435.771 368.368 441.028L263.791 405.663C262.704 405.264 262.704 404.747 263.791 404.109C264.479 403.711 265.168 403.711 265.856 404.109C266.508 404.428 267.197 404.388 267.922 403.99C268.646 403.592 268.628 403.273 267.867 403.034C259.316 400.326 251.47 401.043 244.332 405.185C242.593 406.22 240.944 405.742 239.386 403.751C238.19 402.317 237.175 400.406 236.342 398.016C235.001 394.352 233.28 392.879 231.178 393.596C215.959 398.853 202.334 398.255 190.304 391.803C166.787 379.219 144.81 371.97 124.373 370.059C98.2103 352.376 68.7868 348.314 36.1019 357.872C26.8617 355.164 17.2955 354.208 7.403 355.005C-3.39528 355.881 -12.8892 355.045 -21.0785 352.496C-32.9276 348.792 -45.266 344.61 -57.3325 346.641C-71.0661 348.951 -82.8789 337.083 -92.7714 311.038C-118.589 243.175 -103.968 152.732 -62.2245 152.613C-12.4906 152.493 37.0259 143.532 86.9772 147.356C136.385 151.179 187.913 149.865 238.299 159.662C263.954 164.56 289.663 161.693 315.644 165.277C379.637 173.959 443.575 180.809 507.46 185.827C536.43 188.097 565.02 185.23 593.882 193.593C599.173 195.186 604.481 195.345 609.808 194.071C616.004 192.637 616.077 190.367 610.025 187.261C587.161 175.472 564.803 166.432 542.953 160.14C539.039 159.024 535.234 156.914 531.538 153.807C527.335 150.223 522.733 150.581 517.732 154.883C516.211 156.237 514.924 155.759 513.873 153.449C513.475 152.573 513.438 151.617 513.765 150.581C513.801 150.444 513.822 150.289 513.824 150.13C513.827 149.97 513.811 149.813 513.779 149.67C513.746 149.528 513.698 149.405 513.639 149.314C513.579 149.223 513.51 149.166 513.438 149.148L497.35 144.13C496.742 143.971 496.146 143.48 495.61 142.696C492.566 138.395 491.135 133.218 491.316 127.164C491.534 120.155 490.048 116.451 486.859 116.053C472.872 114.38 459.211 113.225 445.876 112.588C439.426 112.27 433.502 109.88 428.103 105.42C418.79 97.6935 413.119 93.3525 411.09 92.3967C388.297 81.6439 364.962 71.5681 341.082 62.1693C339.27 61.4524 337.64 59.8197 336.19 57.2708C330.755 47.8721 324.504 42.5354 317.438 41.261C315.119 40.7831 314.195 43.0531 314.666 48.0711C315.499 57.4699 318.362 63.603 323.254 66.4704C324.015 66.8925 324.677 67.9346 325.109 69.393C325.541 70.8514 325.713 72.6211 325.591 74.3559L325.265 78.5375C325.205 79.3104 325.077 80.0495 324.887 80.7111C324.698 81.3727 324.451 81.9433 324.163 82.389C323.874 82.8347 323.548 83.1465 323.205 83.3058C322.862 83.4652 322.509 83.4689 322.167 83.3166C316.514 80.8474 311.695 73.7983 307.709 62.1693C306.513 58.6647 306.549 55.2397 307.817 51.8944C308.578 49.9031 309.068 47.6729 309.285 45.2037C309.466 43.0532 309.285 41.0221 308.741 39.1104C307.727 35.6058 306.241 33.8535 304.284 33.8535C302.183 33.8535 300.498 35.6457 299.229 39.2299C298.07 42.4956 296.675 44.8055 295.044 46.1596C294.456 46.6426 293.82 46.7613 293.203 46.5029C292.587 46.2444 292.015 45.6186 291.549 44.6939C291.084 43.7692 290.743 42.5811 290.563 41.2593C290.384 39.9375 290.374 38.533 290.533 37.1989L294.229 5.17932C294.736 1.11714 295.932 -0.555597 297.816 0.161259C344.343 19.0385 392.284 37.637 441.637 55.9566C465.661 64.8775 490.954 75.3116 517.515 87.2592C534.328 94.826 551.178 102.034 568.064 108.884C584.841 115.734 601.655 123.699 618.505 132.78C662.459 156.436 706.667 177.464 751.128 195.863C775.207 205.899 812.929 192.757 824.343 255.003C832.985 302.316 819.071 341.026 797.818 347.119C791.948 348.792 784.973 346.721 776.892 340.907C770.225 336.128 763.503 331.906 756.727 328.242C742.341 319.64 727.774 317.211 713.026 320.954L681.827 313.188C640.192 298.214 598.321 290.289 556.215 289.413C548.823 289.253 541.177 287.342 533.278 283.678C524.835 279.775 516.573 278.341 508.492 279.377C500.067 280.452 492.838 273.403 484.685 274.12C463.487 275.912 444.681 265.159 424.298 263.725C408.934 262.69 392.899 260.221 376.195 256.318C362.008 253.092 348.365 258.349 334.396 254.048C324.54 251.101 314.503 250.463 304.284 252.136C289.283 254.685 269.86 253.41 246.017 248.313C228.225 244.49 207.244 245.804 183.075 252.256L120.622 247.715C119.68 247.715 119.227 248.751 119.263 250.822L119.372 256.198C119.372 257.154 119.571 257.632 119.97 257.632C149.865 258.349 173.237 271.372 199.762 278.182C214.51 282.005 228.66 287.66 242.212 295.147C279.716 315.817 318.797 326.211 357.497 341.982C397.465 358.231 437.289 374.917 476.967 392.042C615.28 451.86 747.686 525.577 874.186 613.192C888.934 623.467 899.116 639.636 904.733 661.7C914.444 700.012 910.385 731.593 892.557 756.444C884.35 767.914 876.632 767.675 867.772 759.909C838.964 734.58 814.251 718.49 793.633 711.641C765.949 702.481 748.229 695.87 740.475 691.807L680.577 671.138L663.238 660.027C657.223 654.212 650.863 651.225 644.16 651.066C642.384 651.066 640.699 650.23 639.105 648.557C631.93 641.07 624.103 638.601 615.624 641.15C612.073 637.486 607.398 635.893 601.601 636.371C582.178 623.547 562.466 617.135 542.463 617.135C515.902 607.258 489.287 598.696 462.617 591.448C447.725 587.266 433.103 577.469 418.21 573.646C373.64 562.415 329.939 551.622 287.108 541.268C257.649 534.099 228.66 529.559 200.142 527.648C170.827 525.656 142.038 523.466 113.774 521.076C99.4242 519.882 84.6581 520.479 69.4753 522.868C55.0896 525.178 40.2328 525.816 24.905 524.78C24.6876 524.78 24.5607 525.019 24.5245 525.497L24.3071 528.962C24.0897 532.626 24.7963 534.856 26.4269 535.652C50.56 547.361 76.5956 564.924 97.7936 575.916C228.243 644.017 369.292 703.875 505.34 778.189C610.895 835.776 715.581 916.661 817.875 993.126C856.647 1022.12 897.431 1048.96 940.226 1073.65C960.282 1085.24 983.981 1133.27 973.382 1183.45C963.707 1229.33 941.802 1236.14 922.995 1210.45C911.309 1194.44 898.862 1178.79 886.252 1167.44C855.198 1139.56 824.234 1113.4 793.361 1088.95C787.962 1084.72 782.527 1080.42 777.055 1076.04C748.211 1053.1 718.335 1032.31 687.425 1013.68C685.287 1012.4 683.15 1011.01 681.012 1009.49C632.6 975.802 583.573 947.287 533.93 923.949C521.755 918.214 509.289 912.918 496.534 908.059Z" fill="black" fill-opacity="0.05"/>
</svg>
